<?xml version="1.0" standalone="no"?><svg xmlns="http://www.w3.org/2000/svg" viewBox="0 0 1440 320"><path fill="#346d96" fill-opacity="1" d="M0,128L24,122.7C48,117,96,107,144,122.7C192,139,240,181,288,213.3C336,245,384,267,432,272C480,277,528,267,576,250.7C624,235,672,213,720,202.7C768,192,816,192,864,208C912,224,960,256,1008,266.7C1056,277,1104,267,1152,234.7C1200,203,1248,149,1296,117.3C1344,85,1392,75,1416,69.3L1440,64L1440,320L1416,320C1392,320,1344,320,1296,320C1248,320,1200,320,1152,320C1104,320,1056,320,1008,320C960,320,912,320,864,320C816,320,768,320,720,320C672,320,624,320,576,320C528,320,480,320,432,320C384,320,336,320,288,320C240,320,192,320,144,320C96,320,48,320,24,320L0,320Z"></path></svg>