<?xml version="1.0" standalone="no"?><svg xmlns="http://www.w3.org/2000/svg" viewBox="0 0 1440 320"><path fill="#346d96" fill-opacity="1" d="M0,192L10.9,192C21.8,192,44,192,65,165.3C87.3,139,109,85,131,64C152.7,43,175,53,196,64C218.2,75,240,85,262,122.7C283.6,160,305,224,327,240C349.1,256,371,224,393,213.3C414.5,203,436,213,458,192C480,171,502,117,524,101.3C545.5,85,567,107,589,112C610.9,117,633,107,655,128C676.4,149,698,203,720,202.7C741.8,203,764,149,785,106.7C807.3,64,829,32,851,32C872.7,32,895,64,916,106.7C938.2,149,960,203,982,229.3C1003.6,256,1025,256,1047,240C1069.1,224,1091,192,1113,186.7C1134.5,181,1156,203,1178,176C1200,149,1222,75,1244,42.7C1265.5,11,1287,21,1309,53.3C1330.9,85,1353,139,1375,165.3C1396.4,192,1418,192,1429,192L1440,192L1440,0L1429.1,0C1418.2,0,1396,0,1375,0C1352.7,0,1331,0,1309,0C1287.3,0,1265,0,1244,0C1221.8,0,1200,0,1178,0C1156.4,0,1135,0,1113,0C1090.9,0,1069,0,1047,0C1025.5,0,1004,0,982,0C960,0,938,0,916,0C894.5,0,873,0,851,0C829.1,0,807,0,785,0C763.6,0,742,0,720,0C698.2,0,676,0,655,0C632.7,0,611,0,589,0C567.3,0,545,0,524,0C501.8,0,480,0,458,0C436.4,0,415,0,393,0C370.9,0,349,0,327,0C305.5,0,284,0,262,0C240,0,218,0,196,0C174.5,0,153,0,131,0C109.1,0,87,0,65,0C43.6,0,22,0,11,0L0,0Z"></path></svg>